HIERARCHY
ROOT Hips
{
  OFFSET 57.8838 95.319 338.509
  CHANNELS 6 Xposition Yposition Zposition Zrotation Xrotation Yrotation
  JOINT LeftUpLeg
  {
    OFFSET 8.64259 1.95398 -2.38835
    CHANNELS 3 Zrotation Xrotation Yrotation
    JOINT LeftLeg
    {
      OFFSET 43.7702 0 0
      CHANNELS 3 Zrotation Xrotation Yrotation
      JOINT LeftFoot
      {
        OFFSET 40.6238 0 0
        CHANNELS 3 Zrotation Xrotation Yrotation
        JOINT LeftToeBase
        {
          OFFSET 12.7242 0 0
          CHANNELS 3 Zrotation Xrotation Yrotation
          End Site
          {
            OFFSET 0 0 0
          }
        }
      }
    }
  }
  JOINT RightUpLeg
  {
    OFFSET -8.2249 1.95398 -2.59336
    CHANNELS 3 Zrotation Xrotation Yrotation
    JOINT RightLeg
    {
      OFFSET 43.5653 0 0
      CHANNELS 3 Zrotation Xrotation Yrotation
      JOINT RightFoot
      {
        OFFSET 40.6238 0 0
        CHANNELS 3 Zrotation Xrotation Yrotation
        JOINT RightToeBase
        {
          OFFSET 12.7242 0 0
          CHANNELS 3 Zrotation Xrotation Yrotation
          End Site
          {
            OFFSET 0 0 0
          }
        }
      }
    }
  }
  JOINT Spine
  {
    OFFSET 0.165834 0.87714 6.61349
    CHANNELS 3 Zrotation Xrotation Yrotation
    JOINT Spine1
    {
      OFFSET 7.38963 1.71661e-005 0
      CHANNELS 3 Zrotation Xrotation Yrotation
      JOINT Spine2
      {
        OFFSET 11.9445 1.14441e-005 0
        CHANNELS 3 Zrotation Xrotation Yrotation
        JOINT Spine3
        {
          OFFSET 14.7254 4.19617e-005 0
          CHANNELS 3 Zrotation Xrotation Yrotation
          JOINT Spine4
          {
            OFFSET 10.9679 0 0
            CHANNELS 3 Zrotation Xrotation Yrotation
            JOINT RightShoulder
            {
              OFFSET 2.46616 -1.6653 3.69651
              CHANNELS 3 Zrotation Xrotation Yrotation
              JOINT RightArm
              {
                OFFSET 13.0012 0 0
                CHANNELS 3 Zrotation Xrotation Yrotation
                JOINT RightForeArm
                {
                  OFFSET 28.7848 1.62311e-005 0
                  CHANNELS 3 Zrotation Xrotation Yrotation
                  JOINT RightHand
                  {
                    OFFSET 26.5688 1.62095e-005 0
                    CHANNELS 3 Zrotation Xrotation Yrotation
                    End Site
                    {
                      OFFSET 0 0 0
                    }
                  }
                }
              }
            }
            JOINT LeftShoulder
            {
              OFFSET 2.38034 -1.29275 -3.7523
              CHANNELS 3 Zrotation Xrotation Yrotation
              JOINT LeftArm
              {
                OFFSET 16.3182 6.07031e-005 0
                CHANNELS 3 Zrotation Xrotation Yrotation
                JOINT LeftForeArm
                {
                  OFFSET 27.0901 0 0
                  CHANNELS 3 Zrotation Xrotation Yrotation
                  JOINT LeftHand
                  {
                    OFFSET 24.5451 1.51738e-005 0
                    CHANNELS 3 Zrotation Xrotation Yrotation
                    End Site
                    {
                      OFFSET 0 0 0
                    }
                  }
                }
              }
            }
            JOINT Neck
            {
              OFFSET 5.0226 -0.0266342 0
              CHANNELS 3 Zrotation Xrotation Yrotation
              JOINT Head
              {
                OFFSET 6.69364 2.86102e-005 0
                CHANNELS 3 Zrotation Xrotation Yrotation
                End Site
                {
                  OFFSET 0 0 0
                }
              }
            }
          }
        }
      }
    }
  }
}
MOTION
Frames:	17
Frame Time:	0.0416667
78.8464 110.111 73.0066 -104.362 52.2069 -75.5777 173.299 42.7134 99.8028 -13.5046 12.1313 0.359468 44.6738 -16.8263 -1.98885 29.9527 0.0326407 8.68007 166.874 -14.679 85.8161 -53.6738 -11.9028 -1.20887 57.2539 9.70985 19.5676 33.0422 -6.09417 -6.1272 1.65733 8.71063 -90.1894 9.46403 3.2194 -0.618588 -2.20316 3.18904 -0.759823 -24.7702 3.25633 0.378621 -4.75757 3.25633 0.378622 99.6039 -23.5147 -87.9634 -0.751005 16.6615 -44.3207 -2.14166 -3.93687 -47.8721 -7.86822 0.227267 -9.07534 -82.1872 -36.073 89.1772 19.2503 -36.8332 7.2359 1.20748 27.8939 0.00126032 4.77876 -0.376561 -13.0598 -4.60961 1.02754 -12.2291 -12.2099 0.757072 16.7695 
63.2336 110.902 58.6216 -111.076 58.018 -68.881 177.587 31.2228 100.376 -7.6896 11.3249 1.02417 41.8321 -18.8378 -3.11276 21.5942 -3.84722 6.64836 166.488 -10.5546 75.7855 -84.5537 -8.48986 -4.68826 56.5411 6.34066 3.44394 30.5162 -2.28721 -3.42599 1.89706 8.45688 -90.1157 9.97122 3.7282 -0.533725 -1.69454 3.70112 -0.697524 -24.2721 3.716 0.61303 -4.25946 3.716 0.613028 100.038 -19.845 -87.3085 -7.38011 17.5696 -38.7665 -3.38303 -8.0547 -36.1296 -8.58872 0.197132 -8.30014 -80.3853 -29.9203 91.9596 24.3151 -30.6293 19.1828 -2.75092 13.7272 0.060725 9.26286 -0.77549 -11.7184 -9.40253 3.19335 -10.6463 -10.8342 2.56335 16.2628 
47.9559 107.739 44.3123 -113.02 61.2847 -62.5726 179.691 23.8455 102.861 -8.48807 15.0554 2.945 38.6859 -20.5404 -6.02159 16.6272 -6.14658 6.08138 174.179 -5.6824 75.1665 -109.232 -13.9904 -3.86989 55.3457 4.62003 -5.44024 26.8368 2.72828 -1.63401 1.85574 8.01715 -90.5525 10.8667 3.43974 -1.41855 -0.800609 3.37399 -1.56871 -23.3719 3.70685 -0.317902 -3.35928 3.70687 -0.317899 100.162 -17.8263 -87.2388 -12.6279 17.3872 -29.0889 -4.79803 -11.4514 -32.5162 -7.9676 0.194708 -8.46668 -79.8059 -25.2668 92.7687 26.5062 -27.292 28.2031 -4.17103 7.04043 -0.257772 16.6886 -1.10444 -10.3692 -10.0046 4.65331 -10.6368 -10.7959 3.87369 17.7017 
33.0827 100.95 30.5876 -115.704 62.0014 -57.7966 -177.728 17.387 102.194 -16.9916 17.1558 2.37604 36.8624 -21.3568 -8.50368 20.4241 -4.6209 7.98002 179.301 2.22778 73.3527 -127.407 -23.2444 -1.34298 54.5194 4.8468 -6.17435 31.0851 -3.12253 -3.25473 1.71321 8.00355 -90.6493 10.8898 3.11095 -1.58409 -0.778583 3.03822 -1.71956 -23.3421 3.44305 -0.574972 -3.32942 3.44307 -0.574977 100.188 -19.483 -86.9973 -12.4868 23.1424 -11.549 -4.9033 -10.8876 -43.9621 -10.8108 -0.0244229 -5.12462 -79.8064 -24.3367 92.6978 23.2136 -22.7301 33.6299 -6.50136 3.85738 -8.91893 25.2077 -0.92752 -7.77923 -9.81917 5.4039 -13.1663 -10.4787 4.60038 20.7801 
20.1764 91.9823 18.4089 -115.418 57.1225 -60.1283 -175.92 18.628 94.0043 -49.0748 24.0693 2.71452 58.5268 2.6794 15.2799 45.8153 7.27661 2.20483 172.228 20.0687 75.4972 -137.69 -24.3865 -1.03838 54.4595 3.22661 -6.97325 32.9473 -5.8744 -5.1075 0.904101 9.09014 -90.2165 8.71219 1.70662 -0.507339 -2.95752 1.68265 -0.581979 -25.5024 1.7801 0.0291349 -5.48973 1.78007 0.0291265 100.806 -28.6792 -84.9484 -11.3332 27.6498 13.4985 -3.6751 -10.2745 -65.4981 -11.8154 -0.215768 -3.15247 -77.5749 -36.9161 97.4787 13.2605 -23.1826 25.4458 -8.99512 -3.96838 -24.4069 24.8074 -1.41237 -9.80943 0.584082 5.69808 -11.7904 -8.72662 6.21869 19.8107 
10.1792 87.4604 7.28375 -110.282 49.5034 -71.7746 -178.642 11.6963 84.9122 -58.6924 28.7632 3.80304 60.535 12.386 27.0105 58.9736 13.938 6.57809 159.061 39.3811 91.3688 -125.146 -21.5441 -2.30812 59.3611 -0.165355 -4.45191 36.006 -10.6179 -7.07539 -0.39381 10.05 -89.047 6.76069 -0.378787 1.87528 -4.91157 -0.295878 1.89011 -27.4384 -0.924711 1.67485 -7.42579 -0.924712 1.67483 102.623 -41.3075 -81.1872 12.4872 13.9787 16.0094 -7.23011 -9.57119 -53.8065 -5.9859 -0.0835184 -4.17112 -77.6029 -50.9573 97.4891 -0.171494 -23.114 -4.94327 -7.05927 2.23002 -19.6285 16.3737 -1.22246 -11.297 12.1508 4.6976 -15.6884 -12.1642 6.48253 22.1751 
-0.57168 88.0998 -4.46252 -100.71 37.6195 -77.6083 175.489 4.3909 85.2399 -59.3022 29.2748 8.77365 61.2096 14.1647 25.3846 60.9606 16.1963 11.0782 158.429 42.9856 101.434 -83.7951 -12.5748 1.81363 65.7354 -3.87726 3.67128 36.9206 -12.4933 -9.71295 -1.50032 10.0043 -89.6122 6.88365 -2.83037 0.880752 -4.78482 -2.78883 1.00453 -27.3436 -2.96419 -0.0112754 -7.33096 -2.96419 -0.0112896 102.654 -49.6756 -81.225 28.092 7.4975 15.0616 -7.63741 -12.7185 -34.7871 -5.05113 0.0182088 -6.0419 -82.5769 -56.7331 90.4546 -12.7099 -14.2084 -27.4511 -1.33707 23.7593 -20.354 10.7276 -1.37656 -15.5834 16.0908 3.6819 -16.7809 -15.7677 5.60643 22.2561 
-13.4567 89.0197 -16.6213 -93.0184 30.4748 -81.8147 173.368 -0.51667 88.3209 -59.3442 30.5981 11.7121 59.6157 6.69001 14.493 59.9035 15.3086 9.90001 174.195 41.748 91.5357 -34.5733 -15.0162 4.39505 52.8397 16.5516 12.2871 33.7877 -9.71604 -25.7675 -2.03086 9.64696 -90.2859 7.57482 -4.17887 -0.353216 -4.08941 -4.19037 -0.168636 -26.6724 -3.87924 -1.59466 -6.65976 -3.87922 -1.59467 102.655 -52.1129 -81.2412 34.4236 7.22804 15.9986 -2.08172 -5.73352 -32.4129 -5.98309 -0.0533752 -4.53801 -84.2417 -56.1925 88.0678 -16.2583 0.477725 -34.2613 4.23216 27.0593 -36.8471 5.71078 -1.01911 -17.4555 21.0619 1.88939 -18.9884 -18.8389 4.4148 24.3516 
-27.5236 86.0293 -28.6353 -94.1769 28.7123 -84.3189 176.754 -5.31542 88.721 -68.1123 22.3275 9.26981 57.8873 4.86396 13.5946 51.7072 11.8521 13.9947 169.394 42.2107 88.1989 -38.2777 -12.3581 6.59051 56.0284 12.7846 8.24756 23.3373 7.44937 -1.90456 -1.86433 9.47652 -90.3607 7.91556 -3.87899 -0.503956 -3.74959 -3.89741 -0.332497 -26.3245 -3.54794 -1.64782 -6.31188 -3.54795 -1.64782 101.385 -50.7587 -83.1894 38.4265 -0.348167 21.1257 -6.23301 -6.10585 -36.1027 2.02908 -0.0806806 -8.11782 -85.78 -57.764 86.0982 -16.728 5.29829 -36.7177 2.65435 27.5285 -38.4422 3.24755 -0.693635 -16.5655 17.3163 1.69095 -15.7829 -16.9107 3.45457 21.2257 
-38.5726 83.4204 -39.0399 -96.0894 31.5794 -80.0704 -179.103 6.02879 87.2068 -89.639 13.6582 7.31301 59.179 7.61483 15.7857 52.8895 12.1345 12.2418 161.945 41.1139 96.9866 -60.4336 -18.9341 6.92175 64.2733 -3.54743 -1.8151 29.3912 -0.891671 3.89677 -1.33186 9.88879 -90.9525 7.06833 -3.06914 -1.74186 -4.59993 -3.14283 -1.60503 -27.1457 -2.40386 -2.58382 -7.13301 -2.40386 -2.58383 98.8395 -53.0122 -86.9645 29.5244 -6.1374 7.30284 -4.60276 -12.887 -23.1591 3.01967 -0.0284088 -4.67084 -86.6841 -59.9656 85.1471 -26.6347 -5.02392 -37.678 -0.247044 38.1173 -16.6504 13.111 -1.25466 -13.4344 19.6291 2.2659 -14.174 -16.8568 3.71296 22.3181 
-48.1754 85.7588 -48.4269 -97.1986 37.2266 -79.3526 -178.003 24.3385 87.1829 -88.3239 13.8482 5.42434 59.4489 8.75444 17.2767 58.2573 14.8323 11.3755 164.824 31.2795 97.5008 -61.5667 -18.3056 5.70209 67.926 -9.85661 -3.8595 35.3241 -8.43949 2.14936 -0.668554 9.98169 -90.7947 6.90016 -1.67579 -1.49465 -4.77057 -1.73994 -1.41946 -27.3031 -1.14923 -1.92909 -7.29047 -1.14924 -1.9291 96.8442 -53.3197 -89.927 20.7525 -9.59941 -9.74268 -0.696978 -20.287 -12.6967 -0.968229 -0.0469441 -1.00333 -87.6145 -61.1561 84.0621 -29.6924 -16.2312 -34.4389 -3.43716 51.3373 -0.104708 13.3496 -0.787666 -9.88173 15.679 1.87443 -14.7699 -15.2027 3.42894 21.5301 
-57.9051 89.6223 -57.9319 -98.6324 41.5189 -77.5433 -179.637 32.9859 89.1335 -62.0914 13.3766 3.31204 61.2487 9.23391 14.5235 59.7734 15.7644 11.8047 170.409 19.2242 98.4987 -57.1498 -12.5905 2.37702 69.136 -8.25626 2.44688 38.3869 -12.442 1.55359 -0.182395 9.77747 -90.6034 7.31429 -0.624731 -1.1607 -4.357 -0.675221 -1.13209 -26.8883 -0.247058 -1.29478 -6.87563 -0.24705 -1.29478 96.5892 -52.4722 -90.3942 16.5385 -13.8027 -16.7147 -0.292509 -7.29789 -20.8707 -7.417 -0.116149 -3.59743 -86.869 -59.7223 84.8635 -25.5153 -23.2897 -24.7527 -0.751363 60.6641 -0.00498319 6.42667 -0.47621 -12.1293 10.872 1.92725 -14.6375 -14.2129 3.09761 20.8334 
-69.0538 91.6932 -67.9588 -99.9592 41.1159 -77.8572 175.743 31.5439 91.5236 -28.2643 17.1908 1.49611 51.0441 -8.64797 1.77783 56.4564 13.9563 12.0394 174.301 2.1145 98.5996 -43.9964 -6.27354 -0.922989 71.381 -13.4343 3.85433 41.4266 -17.4377 -2.65438 -0.20809 9.26066 -90.3284 8.35026 -0.559994 -0.615691 -3.32075 -0.586544 -0.590459 -25.8549 -0.349067 -0.755517 -5.84226 -0.349076 -0.755523 97.5813 -52.2194 -88.921 18.6478 -11.6061 -14.446 -4.12846 -2.34702 -37.7937 -4.59346 0.0346102 -6.73978 -86.7271 -57.1611 84.7053 -20.3989 -27.294 -13.0187 0.0191788 70.3038 0.00348609 1.71613 -0.173076 -13.4741 7.41465 1.93908 -13.9974 -17.6387 2.11751 19.3234 
-80.3558 90.0491 -78.2946 -101.862 45.2575 -74.379 179.573 31.3794 94.6053 -24.489 17.3682 -0.411093 47.4841 -13.6628 0.686232 44.9213 7.9193 7.32171 176.527 -10.2417 99.3942 -41.3672 -4.25756 -2.97403 69.8421 -10.7159 6.17479 42.2006 -20.387 -8.55548 0.189103 8.4805 -90.3757 9.90894 0.206455 -0.761205 -1.76228 0.172754 -0.769558 -24.2958 0.42566 -0.663969 -4.28318 0.425686 -0.66397 98.4385 -51.2141 -87.6997 21.9072 -12.4688 -11.6821 -6.26323 0.362194 -49.4953 -5.38258 0.0403927 -6.81259 -86.0691 -54.6618 85.2914 -14.5666 -27.2576 -1.41448 -2.16447 70.3588 0.0111219 -5.88193 0.453675 -15.1499 3.31592 2.80967 -14.6565 -18.8777 2.36033 19.5512 
-90.8378 86.5473 -86.8575 -106.377 43.8777 -76.1945 -176.819 32.1204 85.7028 -46.8907 19.3853 -0.934062 55.1777 -2.01798 13.2214 34.4611 2.23653 -3.13322 169.648 -12.7934 89.4364 -57.5341 -7.2666 -2.91618 64.2438 -1.00161 7.44766 34.4057 -8.35674 -8.51009 -0.143123 8.49571 -89.7349 9.89065 -0.164933 0.547912 -1.78023 -0.14066 0.554628 -24.3157 -0.321969 0.473022 -4.30306 -0.321983 0.47301 97.8436 -53.4229 -88.4256 22.8983 -11.9657 -10.9988 -9.16647 -1.47211 -53.7824 -9.00789 -0.0699229 -4.55722 -85.56 -56.7034 86.273 -11.5183 -29.8256 -5.18328 -0.141309 73.1966 0.0172598 -8.61279 0.75556 -15.8699 4.76743 2.80557 -15.4603 -18.1326 2.74227 20.0721 
-98.6372 85.2636 -93.6098 -110.943 48.2135 -76.0583 -170.74 26.2611 82.1096 -55.0356 21.9055 -3.30431 58.317 6.23405 22.3232 45.1563 6.5601 -0.679629 174.042 -2.8181 86.9677 -78.6332 -11.8835 -4.46108 59.6546 3.20027 1.16189 24.2356 6.41343 -2.28842 0.296276 8.53469 -89.2629 9.79678 0.924549 1.38866 -1.87454 0.984748 1.34663 -24.4046 0.464523 1.60227 -4.39196 0.464508 1.60227 96.9215 -54.3502 -89.7124 25.336 -13.081 -11.0196 -10.1141 -6.06212 -45.1018 -10.5546 -0.130617 -3.90368 -85.222 -58.0693 86.9063 -15.1611 -29.7692 -17.0441 1.17948 73.2494 0.00931812 -1.13578 0.0374454 -12.1551 3.86199 2.91141 -13.2396 -17.6308 2.49512 19.5587 
-105.581 87.1718 -99.2957 -110.731 47.5379 -77.009 -172.77 18.5538 80.2658 -53.336 20.9372 -2.55668 59.6157 8.7905 24.1302 49.7278 8.71588 1.48591 174.79 8.68233 86.9427 -85.9207 -10.7243 -3.93332 60.7149 2.11839 2.64463 26.162 3.76575 -2.56645 -0.0355078 8.40565 -89.2792 10.0593 0.257348 1.40789 -1.61243 0.319054 1.39519 -24.1413 -0.177633 1.42014 -4.12871 -0.177633 1.42014 96.9574 -54.6794 -89.6284 26.5332 -16.0586 -11.8004 -9.29544 -13.4176 -32.4948 -7.80896 -0.126059 -3.51666 -84.1488 -58.7052 88.4507 -15.4826 -22.3277 -21.2369 -3.60857 57.0875 -2.06218 10.1503 -0.687823 -9.74514 3.88888 4.19009 -11.1246 -19.021 3.08878 19.9982 
